<svg width="150" height="36" fill="none" xmlns="http://www.w3.org/2000/svg"><path fill-rule="evenodd" clip-rule="evenodd" d="M21.408 18.068c0 5.556-4.555 10.06-10.174 10.06S1.061 23.624 1.061 18.068c0-5.555 4.554-10.06 10.173-10.06s10.174 4.505 10.174 10.06zm-3.755 0c0 3.506-2.874 6.347-6.419 6.347-3.545 0-6.419-2.841-6.419-6.347 0-3.505 2.874-6.347 6.42-6.347 3.544 0 6.418 2.842 6.418 6.347z" fill="#120136"/><path d="M35.06 11.717a9.876 9.876 0 00-7.767-3.342 9.86 9.86 0 00-6.72 2.97 9.643 9.643 0 00-2.738 6.758 9.644 9.644 0 002.786 6.737 9.862 9.862 0 006.742 2.925 9.875 9.875 0 007.697-3.345L32.212 22a6.095 6.095 0 01-4.741 2.053 6.088 6.088 0 01-4.162-1.804 5.953 5.953 0 01-1.72-4.16 5.952 5.952 0 011.69-4.17 6.087 6.087 0 014.149-1.835 6.097 6.097 0 014.784 2.052l2.848-2.42zm2.335 8.387V4.177h3.754v4.55h5.632V12.2h-5.632v8.144c0 2.083 1.708 3.772 3.815 3.772h1.817v3.473h-1.817c-4.18 0-7.57-3.351-7.57-7.485z" fill="#120136"/><path fill-rule="evenodd" clip-rule="evenodd" d="M64.585 25.177c-1.525 1.605-3.65 2.588-6.21 2.591-5.412-.007-9.797-4.347-9.797-9.7 0-5.353 4.385-9.693 9.797-9.7 2.56.004 4.685.986 6.21 2.592V8.727h3.633V27.41h-3.633v-2.232zm-6.197-1.12c3.345 0 6.056-2.682 6.056-5.989s-2.711-5.987-6.056-5.987c-3.344 0-6.055 2.68-6.055 5.987s2.71 5.988 6.055 5.988z" fill="#120136"/><path d="M136.067 8.736h-4.564l13.81 18.68h4.565l-13.811-18.68z" fill="#120136"/><path d="M145.313 8.736h4.565l-13.81 18.68h-4.565l13.81-18.68zm-24.334.039v18.641h3.771V12.309h5.46V8.775h-5.46c0-3.34 1.77-4.55 3.888-4.55h1.572V.73h-1.572c-4.634 0-7.659 2.997-7.659 8.045z" fill="#120136"/><path d="M76.728 18.023C76.728 3.428 79.89.3 94.651.3s17.925 3.128 17.925 17.723c0 14.595-3.164 17.723-17.925 17.723-14.76 0-17.924-3.128-17.924-17.723z" fill="url(#paint0_linear_26_972)"/><path d="M89.134 4.176c4.788.058 11.427 7.755 14.394 13.07 2.173-2.15 3.378-4.153 3.525-5.605 1.292.232 2.467 1.016 2.496 2.41.059 1.8-1.586 4.327-4.347 6.825 1.234 3.253 1.381 5.954.206 7.203-.529.523-1.234.697-1.998.697.088-1.713-.323-3.63-1.087-5.605-5.287 3.775-11.779 6.215-15.656 6.04-1.292-.057-2.291-.406-2.879-1.103-.822-.93-.47-1.975-.41-2.12 5.433.813 12.894-2.963 17.3-6.273-3.7-6.651-10.251-12.78-14.217-12.78.118-1.655 1-2.788 2.673-2.759z" fill="url(#paint1_radial_26_972)"/><path d="M100.913 32.145c-4.964 0-11.339-7.144-14.247-11.791-2.026 1.917-5.199 5.78-3.466 7.929-.264-.29-2.702-3.34-2.76-3.457-1.146-1.945.587-5.17 4.082-8.393-1.234-2.73-1.733-4.676-1.733-6.157 0-2.963 1.887-4.301 3.73-5.78-1.586 2.265.118 6.796 1.293 9.294 4.612-3.282 11.192-6.07 15.539-6.07 1.645 0 2.908.32 3.907 1.568l2.203 2.73c-3.731-3.165-14.6 2.033-19.475 5.577 2.966 4.617 11.309 14.144 15.715 10.949-1.058 1.19-3.202 3.601-4.788 3.601z" fill="url(#paint2_radial_26_972)"/><path d="M83.29 28.37l-.089-.088.088.087z" fill="#fff"/><defs><radialGradient id="paint1_radial_26_972" cx="0" cy="0" r="1" gradientUnits="userSpaceOnUse" gradientTransform="matrix(-10.04093 12.14862 -12.16704 -10.05615 101.163 18.208)"><stop stop-color="#0E012B"/><stop offset=".246" stop-color="#0E012B"/><stop offset=".555" stop-color="#0E155A"/><stop offset="1" stop-color="#172A80"/></radialGradient><radialGradient id="paint2_radial_26_972" cx="0" cy="0" r="1" gradientUnits="userSpaceOnUse" gradientTransform="rotate(85.207 38.975 56.52) scale(20.8665 24.8577)"><stop stop-color="#9DE2FF"/><stop offset=".427" stop-color="#5E97F9"/><stop offset=".847" stop-color="#0C34F0"/><stop offset=".995" stop-color="#101B4B"/></radialGradient><linearGradient id="paint0_linear_26_972" x1="112.577" y1=".3" x2="77.133" y2="36.147" gradientUnits="userSpaceOnUse"><stop/><stop offset="1" stop-color="#1A0052"/></linearGradient></defs></svg>